<svg xmlns="http://www.w3.org/2000/svg" width="860" height="128" viewBox="0 0 860 128" role="img" aria-label="Стек и инструменты" font-family="Segoe UI, Ubuntu, Helvetica, Arial, sans-serif">
  <clipPath id="pill0"><rect x="0" y="0" width="200" height="56" rx="14"/></clipPath>
  <rect x="0" y="0" width="200" height="56" rx="14" fill="#1a1b27" stroke="#2f334d"/>
  <g clip-path="url(#pill0)"><rect x="0" y="0" width="5" height="56" fill="#2496ED"/></g>
  <g transform="translate(16.00 17.88) scale(0.10938) translate(0 0)"><path fill="#2396ed" d="M250.716 70.497c-5.765-4-18.976-5.5-29.304-3.5c-1.2-10-6.725-18.749-16.333-26.499l-5.524-4l-3.844 5.75c-4.803 7.5-7.205 18-6.485 28c.24 3.499 1.441 9.749 5.044 15.249c-3.362 2-10.328 4.5-19.455 4.5H1.155l-.48 2c-1.682 9.999-1.682 41.248 18.014 65.247c14.892 18.249 36.99 27.499 66.053 27.499c62.93 0 109.528-30.25 131.386-84.997c8.647.25 27.142 0 36.51-18.75c.24-.5.72-1.5 2.401-5.249l.961-2zM139.986 0h-26.42v24.999h26.42zm0 29.999h-26.42v24.999h26.42zm-31.225 0h-26.42v24.999h26.42zm-31.225 0H51.115v24.999h26.421zM46.311 59.998H19.89v24.999h26.42zm31.225 0H51.115v24.999h26.421zm31.225 0h-26.42v24.999h26.42zm31.226 0h-26.422v24.999h26.422zm31.225 0H144.79v24.999h26.422z"/></g>
  <text x="56" y="34" font-size="15.5" font-weight="600" fill="#c0caf5">Docker</text>
  <clipPath id="pill1"><rect x="220" y="0" width="200" height="56" rx="14"/></clipPath>
  <rect x="220" y="0" width="200" height="56" rx="14" fill="#1a1b27" stroke="#2f334d"/>
  <g clip-path="url(#pill1)"><rect x="220" y="0" width="5" height="56" fill="#FC3F1D"/></g>
  <g transform="translate(243.00 14.00) scale(0.05469) translate(0 0)"><path fill="#FC3F1D" d="M153.1 315.8L65.7 512H2l96-209.8c-45.1-22.9-75.2-64.4-75.2-141.1C22.7 53.7 90.8 0 171.7 0H254v512h-55.1V315.8zm45.8-269.3h-29.4c-44.4 0-87.4 29.4-87.4 114.6c0 82.3 39.4 108.8 87.4 108.8h29.4z"/></g>
  <text x="276" y="34" font-size="15.5" font-weight="600" fill="#c0caf5">Yandex Games</text>
  <clipPath id="pill2"><rect x="440" y="0" width="200" height="56" rx="14"/></clipPath>
  <rect x="440" y="0" width="200" height="56" rx="14" fill="#1a1b27" stroke="#2f334d"/>
  <g clip-path="url(#pill2)"><rect x="440" y="0" width="5" height="56" fill="#3178C6"/></g>
  <g transform="translate(456.00 14.00) scale(0.10938) translate(0 0)"><path fill="#3178c6" d="M20 0h216c11.046 0 20 8.954 20 20v216c0 11.046-8.954 20-20 20H20c-11.046 0-20-8.954-20-20V20C0 8.954 8.954 0 20 0"/><path fill="#fff" d="M150.518 200.475v27.62q6.738 3.453 15.938 5.179T185.849 235q9.934 0 18.874-1.899t15.678-6.257q6.738-4.359 10.669-11.394q3.93-7.033 3.93-17.391q0-7.51-2.246-13.163a30.8 30.8 0 0 0-6.479-10.055q-4.232-4.402-10.149-7.898t-13.347-6.602q-5.442-2.245-9.761-4.359t-7.342-4.316q-3.024-2.2-4.665-4.661t-1.641-5.567q0-2.848 1.468-5.135q1.469-2.288 4.147-3.927t6.565-2.547q3.887-.906 8.638-.906q3.456 0 7.299.518q3.844.517 7.732 1.597a54 54 0 0 1 7.558 2.719a41.7 41.7 0 0 1 6.781 3.797v-25.807q-6.306-2.417-13.778-3.582T198.633 107q-9.847 0-18.658 2.115q-8.811 2.114-15.506 6.602q-6.694 4.49-10.582 11.437Q150 134.102 150 143.769q0 12.342 7.127 21.06t21.638 14.759a292 292 0 0 1 10.625 4.575q4.924 2.244 8.509 4.66t5.658 5.265t2.073 6.474a9.9 9.9 0 0 1-1.296 4.963q-1.295 2.287-3.93 3.97t-6.565 2.632t-9.2.95q-8.983 0-17.794-3.151t-16.327-9.451m-46.036-68.733H140V109H41v22.742h35.345V233h28.137z"/></g>
  <text x="496" y="34" font-size="15.5" font-weight="600" fill="#c0caf5">TypeScript</text>
  <clipPath id="pill3"><rect x="660" y="0" width="200" height="56" rx="14"/></clipPath>
  <rect x="660" y="0" width="200" height="56" rx="14" fill="#1a1b27" stroke="#2f334d"/>
  <g clip-path="url(#pill3)"><rect x="660" y="0" width="5" height="56" fill="#F7DF1E"/></g>
  <g transform="translate(676.00 14.00) scale(0.10938) translate(0 0)"><path fill="#f7df1e" d="M0 0h256v256H0z"/><path d="m67.312 213.932l19.59-11.856c3.78 6.701 7.218 12.371 15.465 12.371c7.905 0 12.89-3.092 12.89-15.12v-81.798h24.057v82.138c0 24.917-14.606 36.259-35.916 36.259c-19.245 0-30.416-9.967-36.087-21.996m85.07-2.576l19.588-11.341c5.157 8.421 11.859 14.607 23.715 14.607c9.969 0 16.325-4.984 16.325-11.858c0-8.248-6.53-11.17-17.528-15.98l-6.013-2.58c-17.357-7.387-28.87-16.667-28.87-36.257c0-18.044 13.747-31.792 35.228-31.792c15.294 0 26.292 5.328 34.196 19.247l-18.732 12.03c-4.125-7.389-8.591-10.31-15.465-10.31c-7.046 0-11.514 4.468-11.514 10.31c0 7.217 4.468 10.14 14.778 14.608l6.014 2.577c20.45 8.765 31.963 17.7 31.963 37.804c0 21.654-17.012 33.51-39.867 33.51c-22.339 0-36.774-10.654-43.819-24.574"/></g>
  <text x="716" y="34" font-size="15.5" font-weight="600" fill="#c0caf5">JavaScript</text>
  <clipPath id="pill4"><rect x="0" y="72" width="200" height="56" rx="14"/></clipPath>
  <rect x="0" y="72" width="200" height="56" rx="14" fill="#1a1b27" stroke="#2f334d"/>
  <g clip-path="url(#pill4)"><rect x="0" y="72" width="5" height="56" fill="#478CBF"/></g>
  <g transform="translate(16.00 86.77) scale(0.10938) translate(0 0)"><path fill="#fff" d="M240.34 164.491s-.374-2.29-.592-2.27l-41.548 4.01a6.75 6.75 0 0 0-6.106 6.268l-1.141 16.36l-32.143 2.293l-2.186-14.826c-.487-3.298-3.367-5.784-6.7-5.784H106.07c-3.332 0-6.212 2.486-6.699 5.784l-2.187 14.826l-32.143-2.293L63.9 172.5a6.75 6.75 0 0 0-6.105-6.27l-41.569-4.007c-.215-.02-.372 2.271-.587 2.271l-.056 8.992l35.205 5.677l1.153 16.506c.233 3.341 2.93 6.043 6.273 6.283l44.268 3.158q.251.018.499.019c3.326 0 6.202-2.488 6.689-5.786l2.249-15.256h32.158l2.25 15.256c.485 3.297 3.364 5.784 6.696 5.784q.245 0 .485-.017l44.274-3.158c3.343-.24 6.04-2.942 6.274-6.283l1.151-16.506l35.19-5.703z"/><path fill="#478cbf" d="M101.963 0C90.269 2.6 78.7 6.219 67.854 11.678c.248 9.576.867 18.752 2.122 28.073c-4.212 2.699-8.638 5.015-12.572 8.174c-3.998 3.075-8.08 6.018-11.7 9.614c-7.23-4.782-14.883-9.277-22.767-13.245C14.438 53.44 6.49 63.313 0 74.359c4.884 7.9 9.982 15.305 15.488 22.333h.153v67.798q.187 0 .372.018l41.564 4.006a4.475 4.475 0 0 1 4.034 4.145l1.282 18.348l36.256 2.587l2.497-16.934a4.476 4.476 0 0 1 4.43-3.822h43.85a4.475 4.475 0 0 1 4.428 3.822l2.497 16.934l36.258-2.587l1.28-18.348a4.48 4.48 0 0 1 4.035-4.145l41.547-4.006a5 5 0 0 1 .37-.018v-5.41l.018-.007V96.692h.153c5.506-7.028 10.602-14.434 15.488-22.333c-6.49-11.047-14.44-20.92-22.938-30.065c-7.882 3.967-15.538 8.462-22.769 13.245c-3.618-3.596-7.694-6.54-11.697-9.615c-3.933-3.159-8.365-5.475-12.57-8.173c1.252-9.32 1.872-18.497 2.121-28.074C177.301 6.218 165.733 2.6 154.033 0c-4.672 7.851-8.944 16.352-12.664 24.664c-4.412-.737-8.844-1.01-13.282-1.064v-.005c-.03 0-.06.005-.086.005c-.028 0-.057-.005-.085-.005v.005c-4.446.053-8.875.327-13.288 1.064C110.91 16.353 106.641 7.85 101.963 0M15.57 173.457c.017 4.016.068 8.416.068 9.293c0 39.472 50.073 58.444 112.282 58.662h.154c62.21-.218 112.266-19.19 112.266-58.662c0-.892.055-5.274.073-9.293l-37.359 3.603l-1.288 18.446a4.476 4.476 0 0 1-4.146 4.152l-44.274 3.159a4.477 4.477 0 0 1-4.746-3.813l-2.538-17.217h-36.126l-2.538 17.217a4.473 4.473 0 0 1-4.746 3.813l-44.274-3.159a4.476 4.476 0 0 1-4.146-4.152l-1.286-18.446z"/><path fill="#fff" d="M69.079 99.178c-13.828 0-25.045 11.205-25.045 25.035c0 13.84 11.216 25.05 25.045 25.05c13.834 0 25.048-11.21 25.048-25.05c0-13.83-11.214-25.035-25.048-25.035m117.84 0c-13.837 0-25.05 11.205-25.05 25.035c0 13.84 11.213 25.05 25.05 25.05c13.827 0 25.042-11.21 25.042-25.05c0-13.83-11.215-25.035-25.042-25.035m-58.925 14.65c-4.454 0-8.063 3.285-8.063 7.327v23.06c0 4.045 3.61 7.326 8.063 7.326s8.07-3.281 8.07-7.327v-23.059c0-4.042-3.617-7.327-8.07-7.327"/><path fill="#414042" d="M71.475 109.077c-9.182 0-16.625 7.447-16.625 16.627s7.443 16.619 16.625 16.619c9.187 0 16.627-7.44 16.627-16.62s-7.44-16.626-16.627-16.626m113.043 0c-9.18 0-16.617 7.447-16.617 16.627s7.438 16.619 16.617 16.619c9.19 0 16.626-7.44 16.626-16.62s-7.437-16.626-16.626-16.626"/></g>
  <text x="56" y="106" font-size="15.5" font-weight="600" fill="#c0caf5">Godot</text>
  <clipPath id="pill5"><rect x="220" y="72" width="200" height="56" rx="14"/></clipPath>
  <rect x="220" y="72" width="200" height="56" rx="14" fill="#1a1b27" stroke="#2f334d"/>
  <g clip-path="url(#pill5)"><rect x="220" y="72" width="5" height="56" fill="#4D6BFE"/></g>
  <g transform="translate(236.00 89.66) scale(0.10938) translate(0 0)"><path fill="#4d6bfe" d="M253.314 15.812c-2.711-1.329-3.88 1.203-5.465 2.49c-.542.414-1.001.954-1.46 1.452c-3.963 4.232-8.594 7.013-14.643 6.68c-8.845-.497-16.396 2.284-23.071 9.048c-1.419-8.341-6.133-13.322-13.309-16.517c-3.754-1.66-7.55-3.32-10.179-6.931c-1.836-2.572-2.336-5.436-3.254-8.258c-.584-1.702-1.168-3.445-3.13-3.736c-2.127-.331-2.961 1.452-3.796 2.947c-3.337 6.101-4.63 12.824-4.506 19.63c.292 15.315 6.759 27.515 19.608 36.19c1.46.995 1.836 1.99 1.377 3.444c-.876 2.988-1.92 5.893-2.837 8.88c-.584 1.91-1.46 2.325-3.504 1.494c-7.051-2.945-13.142-7.304-18.524-12.574c-9.136-8.84-17.397-18.592-27.701-26.228a121 121 0 0 0-7.343-5.022c-10.513-10.209 1.377-18.593 4.13-19.588c2.879-1.038 1.002-4.607-8.302-4.565s-17.814 3.154-28.66 7.304c-1.586.623-3.255 1.079-4.966 1.452c-9.845-1.867-20.066-2.283-30.747-1.079c-20.108 2.241-36.17 11.745-47.976 27.972C.872 59.802-2.466 81.963 1.623 105.079c4.297 24.36 16.729 44.53 35.837 60.301c19.816 16.35 42.637 24.36 68.67 22.825c15.81-.913 33.416-3.029 53.275-19.837c5.005 2.49 10.262 3.486 18.982 4.233c6.717.623 13.183-.332 18.19-1.369c7.842-1.66 7.3-8.923 4.464-10.25c-22.988-10.708-17.94-6.35-22.529-9.878c11.681-13.82 29.287-28.18 36.17-74.702c.543-3.693.084-6.018 0-9.006c-.041-1.825.376-2.53 2.462-2.739c5.757-.664 11.348-2.24 16.48-5.062c14.893-8.134 20.9-21.498 22.318-37.517c.21-2.449-.041-4.98-2.628-6.266M123.526 159.985c-22.278-17.513-33.083-23.282-37.547-23.033c-4.172.25-3.42 5.022-2.503 8.135c.96 3.07 2.211 5.187 3.963 7.884c1.21 1.785 2.045 4.44-1.21 6.433c-7.175 4.44-19.65-1.494-20.234-1.784c-14.518-8.55-26.658-19.839-35.21-35.276c-8.261-14.858-13.058-30.794-13.851-47.81c-.21-4.107 1-5.56 5.09-6.307c5.38-.996 10.93-1.204 16.311-.416C61.073 71.131 80.43 81.3 96.66 97.401c9.261 9.172 16.27 20.129 23.488 30.836c7.676 11.37 15.936 22.203 26.45 31.084c3.712 3.112 6.674 5.478 9.511 7.221c-8.552.955-22.82 1.163-32.582-6.557m10.68-68.684a3.27 3.27 0 0 1 3.296-3.278c.418 0 .793.082 1.127.206c.46.167.876.416 1.21.789c.584.581.918 1.41.918 2.283a3.267 3.267 0 0 1-3.296 3.278c-1.835 0-3.254-1.452-3.254-3.278m33.167 17.016c-2.128.872-4.255 1.618-6.3 1.701c-3.17.166-6.633-1.121-8.51-2.698c-2.92-2.449-5.006-3.817-5.882-8.092c-.376-1.826-.167-4.649.167-6.267c.75-3.486-.084-5.726-2.545-7.76c-2.003-1.661-4.548-2.117-7.343-2.117c-1.043 0-2.002-.457-2.712-.83c-1.168-.581-2.127-2.034-1.21-3.818c.293-.58 1.711-1.992 2.045-2.24c3.797-2.16 8.177-1.453 12.224.165c3.755 1.535 6.592 4.358 10.68 8.341c4.172 4.814 4.923 6.143 7.3 9.753c1.879 2.822 3.59 5.727 4.757 9.048c.71 2.075-.209 3.776-2.67 4.814z"/></g>
  <text x="276" y="106" font-size="15.5" font-weight="600" fill="#c0caf5">DeepSeek</text>
  <clipPath id="pill6"><rect x="440" y="72" width="200" height="56" rx="14"/></clipPath>
  <rect x="440" y="72" width="200" height="56" rx="14" fill="#1a1b27" stroke="#2f334d"/>
  <g clip-path="url(#pill6)"><rect x="440" y="72" width="5" height="56" fill="#10A37F"/></g>
  <g transform="translate(456.22 86.00) scale(0.10769) translate(0 0)"><path d="M239.184 106.203a64.72 64.72 0 0 0-5.576-53.103C219.452 28.459 191 15.784 163.213 21.74A65.586 65.586 0 0 0 52.096 45.22a64.72 64.72 0 0 0-43.23 31.36c-14.31 24.602-11.061 55.634 8.033 76.74a64.67 64.67 0 0 0 5.525 53.102c14.174 24.65 42.644 37.324 70.446 31.36a64.72 64.72 0 0 0 48.754 21.744c28.481.025 53.714-18.361 62.414-45.481a64.77 64.77 0 0 0 43.229-31.36c14.137-24.558 10.875-55.423-8.083-76.483m-97.56 136.338a48.4 48.4 0 0 1-31.105-11.255l1.535-.87l51.67-29.825a8.6 8.6 0 0 0 4.247-7.367v-72.85l21.845 12.636c.218.111.37.32.409.563v60.367c-.056 26.818-21.783 48.545-48.601 48.601M37.158 197.93a48.35 48.35 0 0 1-5.781-32.589l1.534.921l51.722 29.826a8.34 8.34 0 0 0 8.441 0l63.181-36.425v25.221a.87.87 0 0 1-.358.665l-52.335 30.184c-23.257 13.398-52.97 5.431-66.404-17.803M23.549 85.38a48.5 48.5 0 0 1 25.58-21.333v61.39a8.29 8.29 0 0 0 4.195 7.316l62.874 36.272l-21.845 12.636a.82.82 0 0 1-.767 0L41.353 151.53c-23.211-13.454-31.171-43.144-17.804-66.405zm179.466 41.695l-63.08-36.63L161.73 77.86a.82.82 0 0 1 .768 0l52.233 30.184a48.6 48.6 0 0 1-7.316 87.635v-61.391a8.54 8.54 0 0 0-4.4-7.213m21.742-32.69l-1.535-.922l-51.619-30.081a8.39 8.39 0 0 0-8.492 0L99.98 99.808V74.587a.72.72 0 0 1 .307-.665l52.233-30.133a48.652 48.652 0 0 1 72.236 50.391zM88.061 139.097l-21.845-12.585a.87.87 0 0 1-.41-.614V65.685a48.652 48.652 0 0 1 79.757-37.346l-1.535.87l-51.67 29.825a8.6 8.6 0 0 0-4.246 7.367zm11.868-25.58L128.067 97.3l28.188 16.218v32.434l-28.086 16.218l-28.188-16.218z"/></g>
  <text x="496" y="106" font-size="15.5" font-weight="600" fill="#c0caf5">ChatGPT</text>
  <clipPath id="pill7"><rect x="660" y="72" width="200" height="56" rx="14"/></clipPath>
  <rect x="660" y="72" width="200" height="56" rx="14" fill="#1a1b27" stroke="#2f334d"/>
  <g clip-path="url(#pill7)"><rect x="660" y="72" width="5" height="56" fill="#A9B1D6"/></g>
  <g transform="translate(676.00 97.48) scale(0.05469) translate(0 0)"><path fill="#E6EAF5" d="M39.388 65.715H13.131V39.429h26.257z"/><path fill="#E6EAF5" d="M39.385 26.286H13.128v39.428h26.257zm13.128 52.571H0V13.143h52.513z"/><path fill="#E6EAF5" d="M105.025 65.715H78.769V39.429h26.256z"/><path fill="#E6EAF5" d="M78.772 65.714h26.256V26.286H78.772zm39.385 13.143H78.772V92H65.644V13.143h52.513z"/><path fill="#E6EAF5" d="M183.797 52.571v13.143h-39.384V52.571z"/><path fill="#E6EAF5" d="M183.794 52.572H144.41v13.142h39.384v13.143h-52.512V13.143h52.512zM144.41 39.429h26.256V26.286H144.41z"/><path fill="#E6EAF5" d="M236.306 78.857H210.05V39.429h26.256z"/><path fill="#E6EAF5" d="M236.31 26.286h-26.256v52.571h-13.13V13.143h39.386zm13.128 52.571H236.31V26.286h13.128z"/><path fill="#E6EAF5" d="M315.078 65.715h-39.384V39.429h39.384z"/><path fill="#E6EAF5" d="M315.075 26.286H275.69v39.428h39.385v13.143h-52.513V13.143h52.513z"/><path fill="#E6EAF5" d="M367.588 65.715h-26.257V39.429h26.257z"/><path fill="#E6EAF5" d="M367.591 26.286h-26.257v39.428h26.257zm13.128 52.571h-52.513V13.143h52.513z"/><path fill="#E6EAF5" d="M433.231 65.715h-26.256V39.429h26.256z"/><path fill="#E6EAF5" d="M433.228 26.286h-26.256v39.428h26.256zm13.129 52.571h-52.513V13.143h39.384V0h13.129z"/><path fill="#E6EAF5" d="M511.997 52.571v13.143h-39.384V52.571z"/><path fill="#E6EAF5" d="M472.616 26.286v13.143h26.256V26.286zM512 52.572h-39.384v13.142H512v13.143h-52.513V13.143H512z"/></g>
  <text x="716" y="106" font-size="15.5" font-weight="600" fill="#c0caf5">OpenCode</text>
</svg>
